<svg width="414" height="147" viewBox="0 0 414 147" fill="none" xmlns="http://www.w3.org/2000/svg">
<path d="M38.7589 48.7025C42.3521 46.6368 46.7792 46.6368 50.3724 48.7025L83.3245 67.6471C86.9178 69.7129 89.1313 73.5306 89.1313 77.6622V115.551C89.1313 119.683 86.9178 123.501 83.3245 125.566L50.3724 144.511C46.7792 146.577 42.3521 146.577 38.7589 144.511L5.80677 125.566C2.21353 123.501 0 119.683 0 115.551V77.6622C0 73.5306 2.21353 69.7129 5.80677 67.6471L38.7589 48.7025Z" fill="#FFE600"/>
<path d="M109.738 97.7568C108.754 97.7568 107.949 97.4424 107.322 96.8137C106.696 96.185 106.383 95.3766 106.383 94.3886V6.81817C106.383 5.8302 106.696 5.02185 107.322 4.39314C108.038 3.76443 108.843 3.45007 109.738 3.45007H127.054C128.038 3.45007 128.843 3.76443 129.47 4.39314C130.186 5.02185 130.544 5.8302 130.544 6.81817V39.2866H163.564V6.81817C163.564 5.8302 163.877 5.02185 164.503 4.39314C165.13 3.76443 165.935 3.45007 166.919 3.45007H184.235C185.219 3.45007 186.024 3.76443 186.651 4.39314C187.277 5.02185 187.59 5.8302 187.59 6.81817V94.3886C187.59 95.3766 187.277 96.185 186.651 96.8137C186.024 97.4424 185.219 97.7568 184.235 97.7568H166.919C165.935 97.7568 165.13 97.4424 164.503 96.8137C163.877 96.185 163.564 95.3766 163.564 94.3886V60.8424H130.544V94.3886C130.544 95.3766 130.186 96.185 129.47 96.8137C128.843 97.4424 128.038 97.7568 127.054 97.7568H109.738Z" fill="black"/>
<path d="M209.754 97.7568C208.859 97.7568 208.053 97.4424 207.337 96.8137C206.711 96.0952 206.398 95.2868 206.398 94.3886V6.81817C206.398 5.8302 206.711 5.02185 207.337 4.39314C208.053 3.76443 208.859 3.45007 209.754 3.45007H227.74C228.724 3.45007 229.53 3.76443 230.156 4.39314C230.872 5.02185 231.23 5.8302 231.23 6.81817V94.3886C231.23 95.3766 230.872 96.185 230.156 96.8137C229.53 97.4424 228.724 97.7568 227.74 97.7568H209.754Z" fill="black"/>
<path d="M276.762 97.7568C273.899 97.7568 272.064 96.4095 271.259 93.715L243.877 7.49179L243.608 6.27928C243.608 5.56075 243.877 4.93204 244.414 4.39314C245.04 3.76443 245.756 3.45007 246.561 3.45007H263.205C264.458 3.45007 265.487 3.80934 266.293 4.52787C267.188 5.24639 267.769 6.05474 268.038 6.9529L287.098 69.1953L306.024 6.9529C306.292 6.05474 306.829 5.24639 307.635 4.52787C308.53 3.80934 309.603 3.45007 310.856 3.45007H327.635C328.351 3.45007 328.977 3.76443 329.514 4.39314C330.14 4.93204 330.453 5.56075 330.453 6.27928L330.185 7.49179L302.803 93.715C301.997 96.4095 300.163 97.7568 297.299 97.7568H276.762Z" fill="black"/>
<path d="M346.341 97.7568C345.446 97.7568 344.64 97.4424 343.924 96.8137C343.298 96.0952 342.985 95.2868 342.985 94.3886V6.81817C342.985 5.8302 343.298 5.02185 343.924 4.39314C344.64 3.76443 345.446 3.45007 346.341 3.45007H409.025C410.009 3.45007 410.815 3.76443 411.441 4.39314C412.067 5.02185 412.381 5.8302 412.381 6.81817V19.4822C412.381 20.3804 412.067 21.1887 411.441 21.9072C410.815 22.5359 410.009 22.8503 409.025 22.8503H366.206V41.038H406.072C407.056 41.038 407.862 41.3973 408.488 42.1158C409.114 42.7445 409.427 43.5529 409.427 44.5408V56.2618C409.427 57.16 409.114 57.9683 408.488 58.6868C407.862 59.3156 407.056 59.6299 406.072 59.6299H366.206V78.3565H410.099C411.083 78.3565 411.888 78.6709 412.515 79.2996C413.141 79.9283 413.454 80.7366 413.454 81.7246V94.3886C413.454 95.2868 413.141 96.0952 412.515 96.8137C411.888 97.4424 411.083 97.7568 410.099 97.7568H346.341Z" fill="black"/>
<path d="M10.4273 35.0773C10.1224 35.0773 9.84801 34.9719 9.60411 34.761C9.39069 34.5201 9.28399 34.249 9.28399 33.9478V10.5436H1.14372C0.838844 10.5436 0.564453 10.4382 0.32055 10.2273C0.107135 9.98637 0.000427246 9.71528 0.000427246 9.41407V4.57962C0.000427246 4.24828 0.107135 3.97719 0.32055 3.76635C0.564453 3.5555 0.838844 3.45007 1.14372 3.45007H25.7474C26.0828 3.45007 26.3572 3.5555 26.5706 3.76635C26.784 3.97719 26.8907 4.24828 26.8907 4.57962V9.41407C26.8907 9.7454 26.784 10.0165 26.5706 10.2273C26.3572 10.4382 26.0828 10.5436 25.7474 10.5436H17.6072V33.9478C17.6072 34.249 17.5005 34.5201 17.2871 34.761C17.0736 34.9719 16.7992 35.0773 16.4639 35.0773H10.4273Z" fill="black"/>
<path d="M32.1903 35.0773C31.8549 35.0773 31.5805 34.9719 31.3671 34.761C31.1537 34.5502 31.047 34.2791 31.047 33.9478V4.57962C31.047 4.24828 31.1537 3.97719 31.3671 3.76635C31.611 3.5555 31.8854 3.45007 32.1903 3.45007H38.0897C38.425 3.45007 38.6994 3.5555 38.9128 3.76635C39.1567 3.97719 39.2787 4.24828 39.2787 4.57962V15.4684H50.5287V4.57962C50.5287 4.24828 50.6354 3.97719 50.8488 3.76635C51.0623 3.5555 51.3367 3.45007 51.672 3.45007H57.5714C57.9068 3.45007 58.1812 3.5555 58.3946 3.76635C58.608 3.97719 58.7147 4.24828 58.7147 4.57962V33.9478C58.7147 34.2791 58.608 34.5502 58.3946 34.761C58.1812 34.9719 57.9068 35.0773 57.5714 35.0773H51.672C51.3367 35.0773 51.0623 34.9719 50.8488 34.761C50.6354 34.5502 50.5287 34.2791 50.5287 33.9478V22.6975H39.2787V33.9478C39.2787 34.2791 39.1567 34.5502 38.9128 34.761C38.6994 34.9719 38.425 35.0773 38.0897 35.0773H32.1903Z" fill="black"/>
<path d="M66.2658 35.0773C65.961 35.0773 65.6866 34.9719 65.4427 34.761C65.2292 34.5201 65.1225 34.249 65.1225 33.9478V4.57962C65.1225 4.24828 65.2292 3.97719 65.4427 3.76635C65.6866 3.5555 65.961 3.45007 66.2658 3.45007H87.6226C87.958 3.45007 88.2323 3.5555 88.4458 3.76635C88.6592 3.97719 88.7659 4.24828 88.7659 4.57962V8.8267C88.7659 9.12792 88.6592 9.39901 88.4458 9.63998C88.2323 9.85082 87.958 9.95625 87.6226 9.95625H73.0341V16.0558H86.6165C86.9519 16.0558 87.2262 16.1763 87.4397 16.4172C87.6531 16.6281 87.7598 16.8992 87.7598 17.2305V21.1613C87.7598 21.4625 87.6531 21.7336 87.4397 21.9746C87.2262 22.1854 86.9519 22.2909 86.6165 22.2909H73.0341V28.5711H87.9884C88.3238 28.5711 88.5982 28.6766 88.8116 28.8874C89.025 29.0983 89.1317 29.3693 89.1317 29.7007V33.9478C89.1317 34.249 89.025 34.5201 88.8116 34.761C88.5982 34.9719 88.3238 35.0773 87.9884 35.0773H66.2658Z" fill="black"/>
<path d="M106.371 145.621C106.067 145.621 105.794 145.519 105.551 145.314C105.339 145.079 105.232 144.816 105.232 144.523V115.97C105.232 115.648 105.339 115.385 105.551 115.18C105.794 114.975 106.067 114.872 106.371 114.872H111.288C112.017 114.872 112.548 115.194 112.882 115.839L120.896 129.676L128.91 115.839C129.244 115.194 129.775 114.872 130.504 114.872H135.376C135.71 114.872 135.983 114.975 136.195 115.18C136.438 115.385 136.56 115.648 136.56 115.97V144.523C136.56 144.845 136.438 145.109 136.195 145.314C135.983 145.519 135.71 145.621 135.376 145.621H129.957C129.623 145.621 129.335 145.519 129.092 145.314C128.88 145.109 128.773 144.845 128.773 144.523V128.05L123.674 137.231C123.279 137.905 122.748 138.241 122.08 138.241H119.712C119.318 138.241 118.999 138.153 118.756 137.978C118.513 137.802 118.301 137.553 118.118 137.231L112.973 128.05V144.523C112.973 144.816 112.867 145.079 112.654 145.314C112.442 145.519 112.169 145.621 111.835 145.621H106.371Z" fill="black"/>
<path d="M141.119 145.621C140.876 145.621 140.648 145.533 140.436 145.357C140.254 145.152 140.163 144.933 140.163 144.699C140.163 144.523 140.178 144.391 140.208 144.303L150.909 116.102C151 115.751 151.197 115.458 151.5 115.224C151.804 114.989 152.199 114.872 152.684 114.872H159.423C159.909 114.872 160.304 114.989 160.607 115.224C160.911 115.458 161.108 115.751 161.199 116.102L171.854 144.303L171.945 144.699C171.945 144.933 171.839 145.152 171.626 145.357C171.444 145.533 171.217 145.621 170.943 145.621H165.343C164.614 145.621 164.129 145.314 163.886 144.699L162.11 140.218H149.952L148.222 144.699C147.979 145.314 147.478 145.621 146.719 145.621H141.119ZM160.289 133.893L156.054 122.296L151.819 133.893H160.289Z" fill="black"/>
<path d="M176.672 145.621C176.369 145.621 176.096 145.519 175.853 145.314C175.64 145.079 175.534 144.816 175.534 144.523V115.97C175.534 115.648 175.64 115.385 175.853 115.18C176.096 114.975 176.369 114.872 176.672 114.872H182.41C182.744 114.872 183.017 114.975 183.229 115.18C183.442 115.385 183.548 115.648 183.548 115.97V125.722L191.972 115.707C192.336 115.151 192.928 114.872 193.748 114.872H200.305C200.578 114.872 200.805 114.975 200.988 115.18C201.17 115.356 201.261 115.56 201.261 115.795C201.261 116 201.215 116.175 201.124 116.322L190.196 129.588L201.944 144.171C202.065 144.289 202.126 144.464 202.126 144.699C202.126 144.933 202.035 145.152 201.853 145.357C201.671 145.533 201.443 145.621 201.17 145.621H194.385C193.657 145.621 193.049 145.328 192.564 144.742L183.548 133.893V144.523C183.548 144.845 183.442 145.109 183.229 145.314C183.017 145.519 182.744 145.621 182.41 145.621H176.672Z" fill="black"/>
<path d="M206.865 145.621C206.562 145.621 206.289 145.519 206.046 145.314C205.833 145.079 205.727 144.816 205.727 144.523V115.97C205.727 115.648 205.833 115.385 206.046 115.18C206.289 114.975 206.562 114.872 206.865 114.872H228.13C228.464 114.872 228.737 114.975 228.949 115.18C229.162 115.385 229.268 115.648 229.268 115.97V120.1C229.268 120.392 229.162 120.656 228.949 120.89C228.737 121.095 228.464 121.198 228.13 121.198H213.604V127.128H227.128C227.462 127.128 227.735 127.245 227.947 127.479C228.16 127.684 228.266 127.948 228.266 128.27V132.092C228.266 132.384 228.16 132.648 227.947 132.882C227.735 133.087 227.462 133.19 227.128 133.19H213.604V139.296H228.494C228.828 139.296 229.101 139.398 229.314 139.603C229.526 139.808 229.632 140.072 229.632 140.394V144.523C229.632 144.816 229.526 145.079 229.314 145.314C229.101 145.519 228.828 145.621 228.494 145.621H206.865Z" fill="black"/>
<path d="M235.947 145.621C235.643 145.621 235.37 145.519 235.127 145.314C234.914 145.079 234.808 144.816 234.808 144.523V115.97C234.808 115.648 234.914 115.385 235.127 115.18C235.37 114.975 235.643 114.872 235.947 114.872H248.332C252.308 114.872 255.405 115.751 257.621 117.508C259.867 119.236 260.99 121.696 260.99 124.888C260.99 126.938 260.489 128.68 259.488 130.115C258.486 131.55 257.105 132.648 255.344 133.409L261.582 144.215C261.673 144.391 261.719 144.552 261.719 144.699C261.719 144.933 261.612 145.152 261.4 145.357C261.218 145.533 261.005 145.621 260.762 145.621H254.706C253.826 145.621 253.204 145.226 252.84 144.435L247.649 134.771H243.004V144.523C243.004 144.845 242.883 145.109 242.64 145.314C242.427 145.519 242.154 145.621 241.82 145.621H235.947ZM248.241 128.534C249.637 128.534 250.699 128.211 251.428 127.567C252.157 126.894 252.521 125.971 252.521 124.8C252.521 123.628 252.157 122.706 251.428 122.032C250.73 121.33 249.667 120.978 248.241 120.978H243.004V128.534H248.241Z" fill="black"/>
<path d="M278.175 146.06C275.291 146.06 272.817 145.65 270.753 144.83C268.689 144.01 267.125 142.941 266.063 141.624C265.031 140.277 264.484 138.812 264.424 137.231C264.424 136.997 264.515 136.792 264.697 136.616C264.909 136.411 265.152 136.309 265.425 136.309H271.163C271.527 136.309 271.815 136.382 272.028 136.528C272.271 136.645 272.513 136.836 272.756 137.099C273.151 137.861 273.788 138.49 274.669 138.988C275.549 139.486 276.718 139.735 278.175 139.735C279.905 139.735 281.226 139.471 282.136 138.944C283.047 138.417 283.502 137.7 283.502 136.792C283.502 136.147 283.259 135.62 282.774 135.21C282.318 134.8 281.59 134.434 280.588 134.112C279.586 133.79 278.099 133.424 276.126 133.014C272.483 132.282 269.751 131.213 267.93 129.807C266.139 128.372 265.243 126.337 265.243 123.702C265.243 121.915 265.759 120.319 266.791 118.914C267.824 117.508 269.296 116.41 271.208 115.619C273.121 114.828 275.352 114.433 277.902 114.433C280.543 114.433 282.834 114.872 284.777 115.751C286.72 116.629 288.192 117.742 289.194 119.089C290.226 120.407 290.773 121.71 290.833 122.999C290.833 123.262 290.742 123.482 290.56 123.658C290.378 123.833 290.15 123.921 289.877 123.921H283.867C283.502 123.921 283.199 123.863 282.956 123.746C282.743 123.628 282.546 123.438 282.364 123.174C282.182 122.501 281.681 121.93 280.861 121.461C280.072 120.993 279.086 120.758 277.902 120.758C276.536 120.758 275.488 120.993 274.76 121.461C274.031 121.93 273.667 122.618 273.667 123.526C273.667 124.141 273.864 124.653 274.259 125.063C274.684 125.473 275.352 125.854 276.262 126.205C277.203 126.528 278.539 126.864 280.269 127.216C283.093 127.714 285.339 128.343 287.008 129.105C288.708 129.837 289.953 130.803 290.742 132.004C291.531 133.175 291.926 134.654 291.926 136.44C291.926 138.402 291.334 140.116 290.15 141.58C288.997 143.015 287.373 144.128 285.278 144.918C283.214 145.68 280.846 146.06 278.175 146.06Z" fill="black"/>
<path d="M297.622 145.621C297.318 145.621 297.045 145.519 296.802 145.314C296.59 145.079 296.483 144.816 296.483 144.523V115.97C296.483 115.648 296.59 115.385 296.802 115.18C297.045 114.975 297.318 114.872 297.622 114.872H310.371C314.257 114.872 317.307 115.736 319.523 117.464C321.77 119.192 322.893 121.71 322.893 125.019C322.893 128.299 321.785 130.774 319.569 132.443C317.353 134.083 314.287 134.903 310.371 134.903H304.953V144.523C304.953 144.845 304.831 145.109 304.588 145.314C304.376 145.519 304.103 145.621 303.769 145.621H297.622ZM310.144 128.841C311.479 128.841 312.526 128.519 313.285 127.875C314.044 127.201 314.424 126.22 314.424 124.932C314.424 123.731 314.059 122.779 313.331 122.076C312.633 121.344 311.57 120.978 310.144 120.978H304.816V128.841H310.144Z" fill="black"/>
<path d="M323.254 145.621C323.011 145.621 322.784 145.533 322.571 145.357C322.389 145.152 322.298 144.933 322.298 144.699C322.298 144.523 322.313 144.391 322.343 144.303L333.044 116.102C333.135 115.751 333.332 115.458 333.636 115.224C333.939 114.989 334.334 114.872 334.82 114.872H341.559C342.044 114.872 342.439 114.989 342.743 115.224C343.046 115.458 343.243 115.751 343.334 116.102L353.989 144.303L354.08 144.699C354.08 144.933 353.974 145.152 353.762 145.357C353.58 145.533 353.352 145.621 353.079 145.621H347.478C346.749 145.621 346.264 145.314 346.021 144.699L344.245 140.218H332.088L330.357 144.699C330.114 145.314 329.614 145.621 328.855 145.621H323.254ZM342.424 133.893L338.189 122.296L333.954 133.893H342.424Z" fill="black"/>
<path d="M370.071 146.06C365.73 146.06 362.33 145.05 359.871 143.029C357.443 140.979 356.152 138.022 356.001 134.156C355.97 133.365 355.955 132.077 355.955 130.291C355.955 128.475 355.97 127.157 356.001 126.337C356.152 122.53 357.473 119.602 359.962 117.552C362.451 115.473 365.821 114.433 370.071 114.433C372.742 114.433 375.14 114.872 377.265 115.751C379.39 116.6 381.059 117.83 382.274 119.441C383.518 121.022 384.156 122.882 384.186 125.019V125.107C384.186 125.342 384.08 125.547 383.867 125.722C383.685 125.869 383.473 125.942 383.23 125.942H377.083C376.688 125.942 376.385 125.869 376.172 125.722C375.96 125.547 375.778 125.239 375.626 124.8C375.201 123.306 374.533 122.267 373.622 121.681C372.712 121.066 371.513 120.758 370.025 120.758C366.443 120.758 364.591 122.691 364.47 126.557C364.44 127.348 364.424 128.563 364.424 130.203C364.424 131.843 364.44 133.087 364.47 133.937C364.591 137.802 366.443 139.735 370.025 139.735C371.513 139.735 372.727 139.427 373.668 138.812C374.609 138.168 375.261 137.129 375.626 135.694C375.747 135.254 375.914 134.961 376.127 134.815C376.339 134.639 376.658 134.551 377.083 134.551H383.23C383.503 134.551 383.731 134.639 383.913 134.815C384.125 134.991 384.216 135.21 384.186 135.474C384.156 137.612 383.518 139.486 382.274 141.097C381.059 142.678 379.39 143.908 377.265 144.786C375.14 145.636 372.742 146.06 370.071 146.06Z" fill="black"/>
<path d="M390.112 145.621C389.809 145.621 389.536 145.519 389.293 145.314C389.08 145.079 388.974 144.816 388.974 144.523V115.97C388.974 115.648 389.08 115.385 389.293 115.18C389.536 114.975 389.809 114.872 390.112 114.872H411.377C411.71 114.872 411.984 114.975 412.196 115.18C412.409 115.385 412.515 115.648 412.515 115.97V120.1C412.515 120.392 412.409 120.656 412.196 120.89C411.984 121.095 411.71 121.198 411.377 121.198H396.851V127.128H410.375C410.709 127.128 410.982 127.245 411.194 127.479C411.407 127.684 411.513 127.948 411.513 128.27V132.092C411.513 132.384 411.407 132.648 411.194 132.882C410.982 133.087 410.709 133.19 410.375 133.19H396.851V139.296H411.741C412.075 139.296 412.348 139.398 412.56 139.603C412.773 139.808 412.879 140.072 412.879 140.394V144.523C412.879 144.816 412.773 145.079 412.56 145.314C412.348 145.519 412.075 145.621 411.741 145.621H390.112Z" fill="black"/>
</svg>
