<svg width="516" height="159" viewBox="0 0 516 159" fill="none" xmlns="http://www.w3.org/2000/svg">
<g clip-path="url(#clip0_152_21)">
<path d="M107.49 101C106.449 101 105.597 100.669 104.934 100.006C104.271 99.3433 103.94 98.4913 103.94 97.45V5.15C103.94 4.10866 104.271 3.25666 104.934 2.594C105.597 1.93133 106.449 1.59999 107.49 1.59999H125.808C126.849 1.59999 127.701 1.93133 128.364 2.594C129.027 3.25666 129.358 4.10866 129.358 5.15V39.372H164.432V5.15C164.432 4.10866 164.763 3.25666 165.426 2.594C166.089 1.93133 166.941 1.59999 167.982 1.59999H186.3C187.341 1.59999 188.193 1.93133 188.856 2.594C189.519 3.25666 189.85 4.10866 189.85 5.15V97.45C189.85 98.4913 189.519 99.3433 188.856 100.006C188.193 100.669 187.341 101 186.3 101H167.982C166.941 101 166.089 100.669 165.426 100.006C164.763 99.3433 164.432 98.4913 164.432 97.45V62.092H129.358V97.45C129.358 98.4913 129.027 99.3433 128.364 100.006C127.701 100.669 126.849 101 125.808 101H107.49ZM251.353 102.42C242.833 102.42 235.354 101.047 228.917 98.302C222.574 95.462 217.651 91.1547 214.149 85.38C210.646 79.5107 208.895 72.0793 208.895 63.086V5.15C208.895 4.10866 209.226 3.25666 209.889 2.594C210.551 1.93133 211.403 1.59999 212.445 1.59999H230.763C231.804 1.59999 232.656 1.93133 233.319 2.594C233.981 3.25666 234.313 4.10866 234.313 5.15V62.944C234.313 69.0973 235.78 73.736 238.715 76.86C241.744 79.8893 245.957 81.404 251.353 81.404C256.654 81.404 260.772 79.8893 263.707 76.86C266.736 73.736 268.251 69.0973 268.251 62.944V5.15C268.251 4.10866 268.582 3.25666 269.245 2.594C270.002 1.93133 270.854 1.59999 271.801 1.59999H290.261C291.207 1.59999 292.012 1.93133 292.675 2.594C293.432 3.25666 293.811 4.10866 293.811 5.15V63.086C293.811 72.0793 292.059 79.5107 288.557 85.38C285.054 91.1547 280.131 95.462 273.789 98.302C267.446 101.047 259.967 102.42 251.353 102.42ZM316.191 101C315.245 101 314.393 100.669 313.635 100.006C312.973 99.3433 312.641 98.4913 312.641 97.45V5.15C312.641 4.10866 312.973 3.25666 313.635 2.594C314.393 1.93133 315.245 1.59999 316.191 1.59999H331.527C333.042 1.59999 334.178 2.02599 334.935 2.87799C335.787 3.63533 336.308 4.25066 336.497 4.724L361.489 49.596L386.481 4.724C386.765 4.25066 387.239 3.63533 387.901 2.87799C388.659 2.02599 389.842 1.59999 391.451 1.59999H406.645C407.687 1.59999 408.539 1.93133 409.201 2.594C409.959 3.25666 410.337 4.10866 410.337 5.15V97.45C410.337 98.4913 409.959 99.3433 409.201 100.006C408.539 100.669 407.687 101 406.645 101H389.747C388.706 101 387.807 100.669 387.049 100.006C386.387 99.3433 386.055 98.4913 386.055 97.45V44.2L370.009 73.878C369.631 74.73 369.063 75.4873 368.305 76.15C367.548 76.8127 366.507 77.144 365.181 77.144H357.797C356.472 77.144 355.431 76.8127 354.673 76.15C353.916 75.4873 353.301 74.73 352.827 73.878L336.781 44.2V97.45C336.781 98.4913 336.45 99.3433 335.787 100.006C335.125 100.669 334.273 101 333.231 101H316.191ZM467.158 102.42C457.692 102.42 449.834 101.095 443.586 98.444C437.338 95.6987 432.605 92.1487 429.386 87.794C426.168 83.4393 424.464 78.8007 424.274 73.878C424.274 73.1207 424.558 72.458 425.126 71.89C425.789 71.2273 426.546 70.896 427.398 70.896H445.29C446.616 70.896 447.61 71.1327 448.272 71.606C449.03 72.0793 449.692 72.6947 450.26 73.452C451.018 74.872 452.059 76.2447 453.384 77.57C454.804 78.8953 456.603 79.984 458.78 80.836C461.052 81.5933 463.845 81.972 467.158 81.972C472.649 81.972 476.767 81.12 479.512 79.416C482.352 77.712 483.772 75.3927 483.772 72.458C483.772 70.3753 483.015 68.6713 481.5 67.346C479.986 65.926 477.524 64.6953 474.116 63.654C470.803 62.518 466.354 61.382 460.768 60.246C453.574 58.7313 447.42 56.7907 442.308 54.424C437.291 51.9627 433.457 48.7913 430.806 44.91C428.156 40.934 426.83 36.0113 426.83 30.142C426.83 24.3673 428.44 19.208 431.658 14.664C434.972 10.12 439.563 6.57 445.432 4.014C451.302 1.458 458.26 0.179995 466.306 0.179995C472.838 0.179995 478.566 1.03199 483.488 2.736C488.506 4.44 492.718 6.712 496.126 9.55199C499.534 12.392 502.09 15.4213 503.794 18.64C505.593 21.764 506.54 24.8407 506.634 27.87C506.634 28.6273 506.35 29.3373 505.782 30C505.214 30.568 504.504 30.852 503.652 30.852H484.908C483.867 30.852 482.968 30.6627 482.21 30.284C481.453 29.9053 480.79 29.29 480.222 28.438C479.654 26.3553 478.14 24.5567 475.678 23.042C473.312 21.4327 470.188 20.628 466.306 20.628C462.141 20.628 458.875 21.3853 456.508 22.9C454.236 24.32 453.1 26.5447 453.1 29.574C453.1 31.4673 453.716 33.124 454.946 34.544C456.272 35.964 458.402 37.1947 461.336 38.236C464.366 39.2773 468.484 40.366 473.69 41.502C482.305 43.1113 489.263 45.1467 494.564 47.608C499.866 49.9747 503.747 53.0987 506.208 56.98C508.67 60.7667 509.9 65.5473 509.9 71.322C509.9 77.7593 508.054 83.3447 504.362 88.078C500.765 92.7167 495.748 96.2667 489.31 98.728C482.873 101.189 475.489 102.42 467.158 102.42Z" fill="white"/>
<path d="M16.408 157.59C12.986 157.59 10.1147 157.079 7.794 156.056C5.47333 154.994 3.68367 153.637 2.425 151.985C1.20567 150.294 0.556667 148.504 0.478 146.616C0.478 146.301 0.596 146.026 0.832 145.79C1.10733 145.515 1.422 145.377 1.776 145.377H4.785C5.257 145.377 5.611 145.495 5.847 145.731C6.083 145.967 6.24033 146.242 6.319 146.557C6.51567 147.501 6.98767 148.445 7.735 149.389C8.52167 150.294 9.60333 151.061 10.98 151.69C12.396 152.28 14.2053 152.575 16.408 152.575C19.7907 152.575 22.2687 151.985 23.842 150.805C25.4547 149.586 26.261 147.973 26.261 145.967C26.261 144.59 25.8283 143.489 24.963 142.663C24.137 141.798 22.8587 141.031 21.128 140.362C19.3973 139.693 17.1553 138.966 14.402 138.179C11.5307 137.353 9.151 136.448 7.263 135.465C5.375 134.482 3.959 133.262 3.015 131.807C2.11033 130.352 1.658 128.503 1.658 126.261C1.658 124.137 2.22833 122.249 3.369 120.597C4.50967 118.906 6.142 117.568 8.266 116.585C10.4293 115.602 13.045 115.11 16.113 115.11C18.5517 115.11 20.6757 115.444 22.485 116.113C24.3337 116.742 25.8677 117.608 27.087 118.709C28.3063 119.771 29.2307 120.931 29.86 122.19C30.4893 123.409 30.8237 124.609 30.863 125.789C30.863 126.064 30.7647 126.34 30.568 126.615C30.3713 126.851 30.0567 126.969 29.624 126.969H26.497C26.2217 126.969 25.9267 126.89 25.612 126.733C25.3367 126.576 25.1203 126.281 24.963 125.848C24.727 124.235 23.8223 122.878 22.249 121.777C20.6757 120.676 18.6303 120.125 16.113 120.125C13.5563 120.125 11.4717 120.617 9.859 121.6C8.28567 122.583 7.499 124.117 7.499 126.202C7.499 127.539 7.87267 128.66 8.62 129.565C9.36733 130.43 10.5473 131.197 12.16 131.866C13.7727 132.535 15.877 133.243 18.473 133.99C21.6197 134.855 24.196 135.78 26.202 136.763C28.208 137.707 29.683 138.907 30.627 140.362C31.6103 141.778 32.102 143.607 32.102 145.849C32.102 148.327 31.453 150.451 30.155 152.221C28.857 153.952 27.028 155.289 24.668 156.233C22.3473 157.138 19.594 157.59 16.408 157.59ZM41.1921 157C40.7595 157 40.4251 156.882 40.1891 156.646C39.9531 156.371 39.8351 156.036 39.8351 155.643V117.116C39.8351 116.683 39.9531 116.349 40.1891 116.113C40.4251 115.838 40.7595 115.7 41.1921 115.7H44.2011C44.6338 115.7 44.9681 115.838 45.2041 116.113C45.4795 116.349 45.6171 116.683 45.6171 117.116V133.4H65.9132V117.116C65.9132 116.683 66.0312 116.349 66.2671 116.113C66.5425 115.838 66.8768 115.7 67.2702 115.7H70.2792C70.7118 115.7 71.0461 115.838 71.2821 116.113C71.5575 116.349 71.6952 116.683 71.6952 117.116V155.643C71.6952 156.036 71.5575 156.371 71.2821 156.646C71.0461 156.882 70.7118 157 70.2792 157H67.2702C66.8768 157 66.5425 156.882 66.2671 156.646C66.0312 156.371 65.9132 156.036 65.9132 155.643V138.71H45.6171V155.643C45.6171 156.036 45.4795 156.371 45.2041 156.646C44.9681 156.882 44.6338 157 44.2011 157H41.1921ZM83.2527 157C82.82 157 82.4857 156.882 82.2497 156.646C82.0137 156.371 81.8957 156.036 81.8957 155.643V117.057C81.8957 116.664 82.0137 116.349 82.2497 116.113C82.4857 115.838 82.82 115.7 83.2527 115.7H86.3797C86.773 115.7 87.0877 115.838 87.3237 116.113C87.599 116.349 87.7367 116.664 87.7367 117.057V155.643C87.7367 156.036 87.599 156.371 87.3237 156.646C87.0877 156.882 86.773 157 86.3797 157H83.2527ZM99.3855 157C98.9528 157 98.6185 156.882 98.3825 156.646C98.1465 156.371 98.0285 156.036 98.0285 155.643V117.116C98.0285 116.683 98.1465 116.349 98.3825 116.113C98.6185 115.838 98.9528 115.7 99.3855 115.7H123.458C123.89 115.7 124.225 115.838 124.461 116.113C124.697 116.349 124.815 116.683 124.815 117.116V119.476C124.815 119.909 124.697 120.243 124.461 120.479C124.225 120.715 123.89 120.833 123.458 120.833H103.752V134.58H122.278C122.71 134.58 123.045 134.718 123.281 134.993C123.517 135.229 123.635 135.563 123.635 135.996V138.356C123.635 138.749 123.517 139.084 123.281 139.359C123.045 139.595 122.71 139.713 122.278 139.713H103.752V155.643C103.752 156.036 103.614 156.371 103.339 156.646C103.103 156.882 102.768 157 102.336 157H99.3855ZM142.868 157C142.474 157 142.14 156.882 141.865 156.646C141.629 156.371 141.511 156.036 141.511 155.643V120.951H130.183C129.789 120.951 129.455 120.833 129.18 120.597C128.944 120.322 128.826 119.987 128.826 119.594V117.116C128.826 116.683 128.944 116.349 129.18 116.113C129.455 115.838 129.789 115.7 130.183 115.7H158.621C159.053 115.7 159.388 115.838 159.624 116.113C159.899 116.349 160.037 116.683 160.037 117.116V119.594C160.037 119.987 159.899 120.322 159.624 120.597C159.388 120.833 159.053 120.951 158.621 120.951H147.352V155.643C147.352 156.036 147.214 156.371 146.939 156.646C146.703 156.882 146.368 157 145.936 157H142.868ZM192.889 157.59C189.467 157.59 186.596 157.079 184.275 156.056C181.955 154.994 180.165 153.637 178.906 151.985C177.687 150.294 177.038 148.504 176.959 146.616C176.959 146.301 177.077 146.026 177.313 145.79C177.589 145.515 177.903 145.377 178.257 145.377H181.266C181.738 145.377 182.092 145.495 182.328 145.731C182.564 145.967 182.722 146.242 182.8 146.557C182.997 147.501 183.469 148.445 184.216 149.389C185.003 150.294 186.085 151.061 187.461 151.69C188.877 152.28 190.687 152.575 192.889 152.575C196.272 152.575 198.75 151.985 200.323 150.805C201.936 149.586 202.742 147.973 202.742 145.967C202.742 144.59 202.31 143.489 201.444 142.663C200.618 141.798 199.34 141.031 197.609 140.362C195.879 139.693 193.637 138.966 190.883 138.179C188.012 137.353 185.632 136.448 183.744 135.465C181.856 134.482 180.44 133.262 179.496 131.807C178.592 130.352 178.139 128.503 178.139 126.261C178.139 124.137 178.71 122.249 179.85 120.597C180.991 118.906 182.623 117.568 184.747 116.585C186.911 115.602 189.526 115.11 192.594 115.11C195.033 115.11 197.157 115.444 198.966 116.113C200.815 116.742 202.349 117.608 203.568 118.709C204.788 119.771 205.712 120.931 206.341 122.19C206.971 123.409 207.305 124.609 207.344 125.789C207.344 126.064 207.246 126.34 207.049 126.615C206.853 126.851 206.538 126.969 206.105 126.969H202.978C202.703 126.969 202.408 126.89 202.093 126.733C201.818 126.576 201.602 126.281 201.444 125.848C201.208 124.235 200.304 122.878 198.73 121.777C197.157 120.676 195.112 120.125 192.594 120.125C190.038 120.125 187.953 120.617 186.34 121.6C184.767 122.583 183.98 124.117 183.98 126.202C183.98 127.539 184.354 128.66 185.101 129.565C185.849 130.43 187.029 131.197 188.641 131.866C190.254 132.535 192.358 133.243 194.954 133.99C198.101 134.855 200.677 135.78 202.683 136.763C204.689 137.707 206.164 138.907 207.108 140.362C208.092 141.778 208.583 143.607 208.583 145.849C208.583 148.327 207.934 150.451 206.636 152.221C205.338 153.952 203.509 155.289 201.149 156.233C198.829 157.138 196.075 157.59 192.889 157.59ZM231.185 157.59C227.566 157.59 224.557 156.921 222.158 155.584C219.798 154.247 218.008 152.378 216.789 149.979C215.569 147.58 214.901 144.787 214.783 141.601C214.743 139.988 214.724 138.258 214.724 136.409C214.724 134.56 214.743 132.79 214.783 131.099C214.901 127.913 215.569 125.12 216.789 122.721C218.008 120.322 219.798 118.453 222.158 117.116C224.557 115.779 227.566 115.11 231.185 115.11C233.899 115.11 236.278 115.484 238.324 116.231C240.369 116.978 242.06 117.981 243.398 119.24C244.774 120.499 245.817 121.915 246.525 123.488C247.233 125.022 247.626 126.615 247.705 128.267C247.744 128.621 247.626 128.916 247.351 129.152C247.115 129.388 246.82 129.506 246.466 129.506H243.221C242.867 129.506 242.552 129.408 242.277 129.211C242.041 129.014 241.864 128.66 241.746 128.149C241.077 125.081 239.818 122.977 237.97 121.836C236.16 120.695 233.879 120.125 231.126 120.125C227.979 120.125 225.481 121.03 223.633 122.839C221.784 124.609 220.781 127.461 220.624 131.394C220.506 134.619 220.506 137.923 220.624 141.306C220.781 145.239 221.784 148.111 223.633 149.92C225.481 151.69 227.979 152.575 231.126 152.575C233.879 152.575 236.16 152.005 237.97 150.864C239.818 149.723 241.077 147.619 241.746 144.551C241.864 144.04 242.041 143.686 242.277 143.489C242.552 143.292 242.867 143.194 243.221 143.194H246.466C246.82 143.194 247.115 143.312 247.351 143.548C247.626 143.784 247.744 144.079 247.705 144.433C247.626 146.085 247.233 147.698 246.525 149.271C245.817 150.805 244.774 152.201 243.398 153.46C242.06 154.719 240.369 155.722 238.324 156.469C236.278 157.216 233.899 157.59 231.185 157.59ZM256.969 157C256.536 157 256.202 156.882 255.966 156.646C255.73 156.371 255.612 156.036 255.612 155.643V117.116C255.612 116.683 255.73 116.349 255.966 116.113C256.202 115.838 256.536 115.7 256.969 115.7H259.978C260.41 115.7 260.745 115.838 260.981 116.113C261.256 116.349 261.394 116.683 261.394 117.116V133.4H281.69V117.116C281.69 116.683 281.808 116.349 282.044 116.113C282.319 115.838 282.653 115.7 283.047 115.7H286.056C286.488 115.7 286.823 115.838 287.059 116.113C287.334 116.349 287.472 116.683 287.472 117.116V155.643C287.472 156.036 287.334 156.371 287.059 156.646C286.823 156.882 286.488 157 286.056 157H283.047C282.653 157 282.319 156.882 282.044 156.646C281.808 156.371 281.69 156.036 281.69 155.643V138.71H261.394V155.643C261.394 156.036 261.256 156.371 260.981 156.646C260.745 156.882 260.41 157 259.978 157H256.969ZM299.029 157C298.596 157 298.262 156.882 298.026 156.646C297.79 156.371 297.672 156.036 297.672 155.643V117.116C297.672 116.683 297.79 116.349 298.026 116.113C298.262 115.838 298.596 115.7 299.029 115.7H323.396C323.829 115.7 324.163 115.838 324.399 116.113C324.635 116.349 324.753 116.683 324.753 117.116V119.358C324.753 119.791 324.635 120.125 324.399 120.361C324.163 120.597 323.829 120.715 323.396 120.715H303.336V133.636H322.098C322.531 133.636 322.865 133.774 323.101 134.049C323.337 134.285 323.455 134.619 323.455 135.052V137.235C323.455 137.628 323.337 137.963 323.101 138.238C322.865 138.474 322.531 138.592 322.098 138.592H303.336V151.985H323.868C324.301 151.985 324.635 152.103 324.871 152.339C325.107 152.575 325.225 152.909 325.225 153.342V155.643C325.225 156.036 325.107 156.371 324.871 156.646C324.635 156.882 324.301 157 323.868 157H299.029ZM334.809 157C334.377 157 334.042 156.882 333.806 156.646C333.57 156.371 333.452 156.036 333.452 155.643V117.116C333.452 116.683 333.57 116.349 333.806 116.113C334.042 115.838 334.377 115.7 334.809 115.7H348.202C352.254 115.7 355.518 116.31 357.996 117.529C360.474 118.748 362.284 120.558 363.424 122.957C364.565 125.317 365.155 128.228 365.194 131.689C365.234 133.459 365.253 135.013 365.253 136.35C365.253 137.687 365.234 139.221 365.194 140.952C365.116 144.571 364.506 147.58 363.365 149.979C362.264 152.339 360.494 154.109 358.055 155.289C355.656 156.43 352.47 157 348.497 157H334.809ZM339.234 151.985H348.202C350.916 151.985 353.08 151.611 354.692 150.864C356.305 150.117 357.465 148.917 358.173 147.265C358.921 145.613 359.314 143.43 359.353 140.716C359.432 139.536 359.471 138.513 359.471 137.648C359.471 136.743 359.471 135.858 359.471 134.993C359.471 134.088 359.432 133.066 359.353 131.925C359.275 128.11 358.37 125.297 356.639 123.488C354.909 121.639 351.998 120.715 347.907 120.715H339.234V151.985ZM389.706 157.59C386.402 157.59 383.55 157 381.151 155.82C378.791 154.64 376.962 152.85 375.664 150.451C374.405 148.012 373.776 144.885 373.776 141.07V117.116C373.776 116.683 373.894 116.349 374.13 116.113C374.366 115.838 374.7 115.7 375.133 115.7H378.142C378.575 115.7 378.909 115.838 379.145 116.113C379.42 116.349 379.558 116.683 379.558 117.116V141.188C379.558 145.043 380.463 147.894 382.272 149.743C384.081 151.592 386.559 152.516 389.706 152.516C392.813 152.516 395.272 151.592 397.081 149.743C398.93 147.894 399.854 145.043 399.854 141.188V117.116C399.854 116.683 399.972 116.349 400.208 116.113C400.483 115.838 400.818 115.7 401.211 115.7H404.279C404.672 115.7 404.987 115.838 405.223 116.113C405.498 116.349 405.636 116.683 405.636 117.116V141.07C405.636 144.885 404.987 148.012 403.689 150.451C402.43 152.85 400.621 154.64 398.261 155.82C395.901 157 393.049 157.59 389.706 157.59ZM416.856 157C416.424 157 416.089 156.882 415.853 156.646C415.617 156.371 415.499 156.036 415.499 155.643V117.057C415.499 116.664 415.617 116.349 415.853 116.113C416.089 115.838 416.424 115.7 416.856 115.7H419.983C420.377 115.7 420.691 115.838 420.927 116.113C421.163 116.349 421.281 116.664 421.281 117.057V151.867H440.928C441.361 151.867 441.695 152.005 441.931 152.28C442.167 152.516 442.285 152.85 442.285 153.283V155.643C442.285 156.036 442.167 156.371 441.931 156.646C441.695 156.882 441.361 157 440.928 157H416.856ZM450.101 157C449.669 157 449.334 156.882 449.098 156.646C448.862 156.371 448.744 156.036 448.744 155.643V117.116C448.744 116.683 448.862 116.349 449.098 116.113C449.334 115.838 449.669 115.7 450.101 115.7H474.468C474.901 115.7 475.235 115.838 475.471 116.113C475.707 116.349 475.825 116.683 475.825 117.116V119.358C475.825 119.791 475.707 120.125 475.471 120.361C475.235 120.597 474.901 120.715 474.468 120.715H454.408V133.636H473.17C473.603 133.636 473.937 133.774 474.173 134.049C474.409 134.285 474.527 134.619 474.527 135.052V137.235C474.527 137.628 474.409 137.963 474.173 138.238C473.937 138.474 473.603 138.592 473.17 138.592H454.408V151.985H474.94C475.373 151.985 475.707 152.103 475.943 152.339C476.179 152.575 476.297 152.909 476.297 153.342V155.643C476.297 156.036 476.179 156.371 475.943 156.646C475.707 156.882 475.373 157 474.94 157H450.101ZM485.882 157C485.449 157 485.115 156.882 484.879 156.646C484.643 156.371 484.525 156.036 484.525 155.643V117.116C484.525 116.683 484.643 116.349 484.879 116.113C485.115 115.838 485.449 115.7 485.882 115.7H500.278C504.722 115.7 508.243 116.742 510.839 118.827C513.435 120.912 514.733 123.999 514.733 128.09C514.733 131.119 513.966 133.597 512.432 135.524C510.937 137.412 508.892 138.73 506.296 139.477L515.382 155.171C515.5 155.407 515.559 155.623 515.559 155.82C515.559 156.135 515.421 156.41 515.146 156.646C514.91 156.882 514.634 157 514.32 157H511.488C510.819 157 510.327 156.823 510.013 156.469C509.698 156.115 509.423 155.761 509.187 155.407L500.632 140.421H490.307V155.643C490.307 156.036 490.169 156.371 489.894 156.646C489.658 156.882 489.323 157 488.891 157H485.882ZM490.307 135.406H500.042C502.992 135.406 505.194 134.796 506.65 133.577C508.105 132.318 508.833 130.47 508.833 128.031C508.833 125.632 508.105 123.803 506.65 122.544C505.234 121.285 503.031 120.656 500.042 120.656H490.307V135.406Z" fill="white"/>
<path d="M43.7589 4.54934C47.3521 2.48355 51.7792 2.48355 55.3724 4.54934L88.3245 23.4939C91.9178 25.5597 94.1313 29.3774 94.1313 33.509V71.398C94.1313 75.5296 91.9178 79.3474 88.3245 81.4131L55.3724 100.358C51.7792 102.423 47.3521 102.423 43.7589 100.358L10.8068 81.4131C7.21353 79.3474 5 75.5296 5 71.398V33.509C5 29.3774 7.21353 25.5597 10.8068 23.4939L43.7589 4.54934Z" fill="#FFE600"/>
</g>
<defs>
<clipPath id="clip0_152_21">
<rect width="516" height="159" fill="white"/>
</clipPath>
</defs>
</svg>
