<svg width="516" height="103" viewBox="0 0 516 103" fill="none" xmlns="http://www.w3.org/2000/svg">
<g clip-path="url(#clip0_326_12)">
<path d="M111.49 101C110.449 101 109.597 100.669 108.934 100.006C108.271 99.3433 107.94 98.4913 107.94 97.45V5.15C107.94 4.10866 108.271 3.25666 108.934 2.594C109.597 1.93133 110.449 1.59999 111.49 1.59999H129.808C130.849 1.59999 131.701 1.93133 132.364 2.594C133.027 3.25666 133.358 4.10866 133.358 5.15V39.372H168.432V5.15C168.432 4.10866 168.763 3.25666 169.426 2.594C170.089 1.93133 170.941 1.59999 171.982 1.59999H190.3C191.341 1.59999 192.193 1.93133 192.856 2.594C193.519 3.25666 193.85 4.10866 193.85 5.15V97.45C193.85 98.4913 193.519 99.3433 192.856 100.006C192.193 100.669 191.341 101 190.3 101H171.982C170.941 101 170.089 100.669 169.426 100.006C168.763 99.3433 168.432 98.4913 168.432 97.45V62.092H133.358V97.45C133.358 98.4913 133.027 99.3433 132.364 100.006C131.701 100.669 130.849 101 129.808 101H111.49ZM255.353 102.42C246.833 102.42 239.354 101.047 232.917 98.302C226.574 95.462 221.651 91.1547 218.149 85.38C214.646 79.5107 212.895 72.0793 212.895 63.086V5.15C212.895 4.10866 213.226 3.25666 213.889 2.594C214.551 1.93133 215.403 1.59999 216.445 1.59999H234.763C235.804 1.59999 236.656 1.93133 237.319 2.594C237.981 3.25666 238.313 4.10866 238.313 5.15V62.944C238.313 69.0973 239.78 73.736 242.715 76.86C245.744 79.8893 249.957 81.404 255.353 81.404C260.654 81.404 264.772 79.8893 267.707 76.86C270.736 73.736 272.251 69.0973 272.251 62.944V5.15C272.251 4.10866 272.582 3.25666 273.245 2.594C274.002 1.93133 274.854 1.59999 275.801 1.59999H294.261C295.207 1.59999 296.012 1.93133 296.675 2.594C297.432 3.25666 297.811 4.10866 297.811 5.15V63.086C297.811 72.0793 296.059 79.5107 292.557 85.38C289.054 91.1547 284.131 95.462 277.789 98.302C271.446 101.047 263.967 102.42 255.353 102.42ZM320.191 101C319.245 101 318.393 100.669 317.635 100.006C316.973 99.3433 316.641 98.4913 316.641 97.45V5.15C316.641 4.10866 316.973 3.25666 317.635 2.594C318.393 1.93133 319.245 1.59999 320.191 1.59999H335.527C337.042 1.59999 338.178 2.02599 338.935 2.87799C339.787 3.63533 340.308 4.25066 340.497 4.724L365.489 49.596L390.481 4.724C390.765 4.25066 391.239 3.63533 391.901 2.87799C392.659 2.02599 393.842 1.59999 395.451 1.59999H410.645C411.687 1.59999 412.539 1.93133 413.201 2.594C413.959 3.25666 414.337 4.10866 414.337 5.15V97.45C414.337 98.4913 413.959 99.3433 413.201 100.006C412.539 100.669 411.687 101 410.645 101H393.747C392.706 101 391.807 100.669 391.049 100.006C390.387 99.3433 390.055 98.4913 390.055 97.45V44.2L374.009 73.878C373.631 74.73 373.063 75.4873 372.305 76.15C371.548 76.8127 370.507 77.144 369.181 77.144H361.797C360.472 77.144 359.431 76.8127 358.673 76.15C357.916 75.4873 357.301 74.73 356.827 73.878L340.781 44.2V97.45C340.781 98.4913 340.45 99.3433 339.787 100.006C339.125 100.669 338.273 101 337.231 101H320.191ZM471.158 102.42C461.692 102.42 453.834 101.095 447.586 98.444C441.338 95.6987 436.605 92.1487 433.386 87.794C430.168 83.4393 428.464 78.8007 428.274 73.878C428.274 73.1207 428.558 72.458 429.126 71.89C429.789 71.2273 430.546 70.896 431.398 70.896H449.29C450.616 70.896 451.61 71.1327 452.272 71.606C453.03 72.0793 453.692 72.6947 454.26 73.452C455.018 74.872 456.059 76.2447 457.384 77.57C458.804 78.8953 460.603 79.984 462.78 80.836C465.052 81.5933 467.845 81.972 471.158 81.972C476.649 81.972 480.767 81.12 483.512 79.416C486.352 77.712 487.772 75.3927 487.772 72.458C487.772 70.3753 487.015 68.6713 485.5 67.346C483.986 65.926 481.524 64.6953 478.116 63.654C474.803 62.518 470.354 61.382 464.768 60.246C457.574 58.7313 451.42 56.7907 446.308 54.424C441.291 51.9627 437.457 48.7913 434.806 44.91C432.156 40.934 430.83 36.0113 430.83 30.142C430.83 24.3673 432.44 19.208 435.658 14.664C438.972 10.12 443.563 6.57 449.432 4.014C455.302 1.458 462.26 0.179995 470.306 0.179995C476.838 0.179995 482.566 1.03199 487.488 2.736C492.506 4.44 496.718 6.712 500.126 9.55199C503.534 12.392 506.09 15.4213 507.794 18.64C509.593 21.764 510.54 24.8407 510.634 27.87C510.634 28.6273 510.35 29.3373 509.782 30C509.214 30.568 508.504 30.852 507.652 30.852H488.908C487.867 30.852 486.968 30.6627 486.21 30.284C485.453 29.9053 484.79 29.29 484.222 28.438C483.654 26.3553 482.14 24.5567 479.678 23.042C477.312 21.4327 474.188 20.628 470.306 20.628C466.141 20.628 462.875 21.3853 460.508 22.9C458.236 24.32 457.1 26.5447 457.1 29.574C457.1 31.4673 457.716 33.124 458.946 34.544C460.272 35.964 462.402 37.1947 465.336 38.236C468.366 39.2773 472.484 40.366 477.69 41.502C486.305 43.1113 493.263 45.1467 498.564 47.608C503.866 49.9747 507.747 53.0987 510.208 56.98C512.67 60.7667 513.9 65.5473 513.9 71.322C513.9 77.7593 512.054 83.3447 508.362 88.078C504.765 92.7167 499.748 96.2667 493.31 98.728C486.873 101.189 479.489 102.42 471.158 102.42Z" fill="white"/>
<path d="M40.7589 3.54934C44.3521 1.48355 48.7792 1.48355 52.3724 3.54934L85.3245 22.4939C88.9178 24.5597 91.1313 28.3774 91.1313 32.509V70.398C91.1313 74.5296 88.9178 78.3474 85.3245 80.4131L52.3724 99.3577C48.7792 101.423 44.3521 101.423 40.7589 99.3577L7.80677 80.4131C4.21353 78.3474 2 74.5296 2 70.398V32.509C2 28.3774 4.21353 24.5597 7.80677 22.4939L40.7589 3.54934Z" fill="#FFE600"/>
</g>
<defs>
<clipPath id="clip0_326_12">
<rect width="516" height="103" fill="white"/>
</clipPath>
</defs>
</svg>
